<svg width="800" height="800" viewBox="0 0 800 800" fill="none" xmlns="http://www.w3.org/2000/svg">
<path fill-rule="evenodd" clip-rule="evenodd" d="M400.555 800C411.287 738.594 433.665 699.083 467.908 638.841L436.945 588.903L432.874 629.47C413.666 613.388 429.128 577.836 448.911 568.557C462.85 592.109 488.632 609.988 511.946 620.345C500.967 634.279 484.191 632.676 467.908 623.305C477.53 645.499 487.398 657.953 506.888 663.872C524.063 659.105 531.01 649.274 542.045 628.113C621.363 635.265 609.398 635.018 631.602 670.777C648.625 624.908 651.092 553.144 621.61 524.784C628.888 519.975 638.756 521.332 658 537.115C638.756 472.873 605.944 486.56 584.85 510.357V489.889C568.918 473.231 564.497 466.496 562.892 458.076C600.349 457.681 616.639 465.176 638.756 489.889L628.641 459.926C621.215 331.187 716.703 143.054 584.85 51.5413C615.903 124.837 627.534 206.845 608.781 284.957C589.962 360.156 585.058 397.592 605.944 439.581C581.889 423.058 549.446 420.592 510.836 431.812C510.836 431.812 525.885 418.742 533.903 406.535C548.953 242.54 562.152 200.986 599.899 149.938C497.681 213.163 506.181 331.139 490.482 436.128C484.191 458.076 482.217 493.465 485.794 515.66C454.462 455.61 442.373 413.563 436.328 323.798L415.111 359.186C423.601 247.541 488.374 94.2026 401.419 0C312.525 96.3016 376.159 244.398 384.889 359.186L363.672 323.798C357.627 413.563 345.538 455.61 314.206 515.66C317.783 493.465 315.809 458.076 309.518 436.128C293.819 331.139 302.319 213.163 200.101 149.938C237.848 200.986 251.047 242.54 266.097 406.535C274.115 418.742 289.164 431.812 289.164 431.812C250.554 420.592 218.111 423.058 194.056 439.581C214.942 397.592 210.038 360.156 191.219 284.957C174.717 206.24 183.929 125.233 215.15 51.5413C81.9119 144.015 178.812 330.723 171.359 459.926L161.244 489.889C183.361 465.176 199.651 457.681 237.108 458.076C235.503 466.496 231.082 473.231 215.15 489.889V510.357C194.056 486.56 161.244 472.873 142 537.115C161.244 521.332 171.112 519.975 178.39 524.784C148.908 553.144 151.375 624.908 168.398 670.777C190.602 635.018 178.637 635.265 257.955 628.113C268.99 649.274 275.937 659.105 293.112 663.872C312.602 657.953 322.47 645.499 332.092 623.305C315.809 632.676 299.033 634.279 288.054 620.345C311.368 609.988 337.15 592.109 351.089 568.557C370.872 577.836 386.334 613.388 367.126 629.47L363.055 588.903L332.092 638.841C366.335 699.083 389.823 738.594 400.555 800ZM611.371 527.99C623.83 540.814 621.61 592.108 617.662 628.113C603.106 604.562 588.18 600.863 556.724 597.534C579.545 559.063 591.141 537.115 611.371 527.99ZM527.736 594.698C539.221 566.669 549.429 550.034 573.748 518.865C545.946 537.111 519.988 544.139 495.91 551.171C498.398 562.782 498.744 570.608 495.91 588.903C507.138 592.429 514.013 593.796 527.736 594.698ZM478.023 557.336C483.169 567.071 485.024 572.526 485.794 582.244C475.115 577.568 468.958 573.61 457.669 564.365C462.579 561.601 466.881 560.061 478.023 557.336ZM551.543 459.926C524.528 466.338 495.91 477.065 495.91 510.357C510.836 507.645 539.825 498.89 554.504 479.038C554.504 476.079 556.724 462.762 551.543 459.926ZM461.37 522.318C428.887 531.898 413.827 539.316 400.062 561.036C386.296 539.316 371.113 531.898 338.63 522.318C348.992 504.709 356.658 494.442 370.579 476.079V445.499C377.123 424.635 380.597 410.049 386.616 381.381V456.227C393.438 447.288 396.371 441.905 400.062 431.812C403.752 441.905 406.562 447.288 413.384 456.227V381.381C419.403 410.049 422.877 424.635 429.421 445.499V476.079C443.342 494.442 451.008 504.709 461.37 522.318ZM400.432 237.978C413.137 156.104 421.896 54.0074 401.419 10.7275C380.941 54.0074 387.726 156.104 400.432 237.978ZM429.667 636.251C421.896 668.434 407.71 681.751 399.938 718.126C392.167 681.751 378.104 668.434 370.333 636.251L399.938 603.822L429.667 636.251ZM188.629 527.99C176.17 540.814 178.39 592.108 182.338 628.113C196.894 604.562 211.82 600.863 243.276 597.534C220.455 559.063 208.859 537.115 188.629 527.99ZM272.264 594.698C260.779 566.669 250.571 550.034 226.252 518.865C254.054 537.111 280.012 544.139 304.09 551.171C301.602 562.782 301.256 570.608 304.09 588.903C292.862 592.429 285.987 593.796 272.264 594.698ZM321.977 557.336C316.831 567.071 314.976 572.526 314.206 582.244C324.885 577.568 331.042 573.61 342.331 564.365C337.421 561.601 333.119 560.061 321.977 557.336ZM248.457 459.926C275.472 466.338 304.09 477.065 304.09 510.357C289.164 507.645 260.175 498.89 245.496 479.038C245.496 476.079 243.276 462.762 248.457 459.926Z" fill="#FF0000"/>
</svg>
