<svg width="800" height="800" viewBox="0 0 800 800" fill="none" xmlns="http://www.w3.org/2000/svg">
<path d="M522.786 141.326H496.346V226.037L522.786 223.967V141.326Z" fill="#F29200"/>
<path d="M569.883 150.413H529.81V211.574L569.883 209.095V150.413Z" fill="#F29200"/>
<path d="M604.999 142.152H577.32V214.053L604.999 212.814V142.152Z" fill="#F29200"/>
<path d="M648.791 150.417H609.957V197.524L648.791 196.698V150.417Z" fill="#F29200"/>
<path d="M278.214 141.326H304.654V226.037L278.214 223.967V141.326Z" fill="#F29200"/>
<path d="M231.117 150.413H271.19V211.574L231.117 209.095V150.413Z" fill="#F29200"/>
<path d="M196.001 142.152H223.68V214.053L196.001 212.814V142.152Z" fill="#F29200"/>
<path d="M152.209 150.417H191.043V197.524L152.209 196.698V150.417Z" fill="#F29200"/>
<path d="M400.5 800C479.821 714.463 616.154 779.752 712 535.537C647.113 588.762 608.603 612.691 533.528 637.603L567.818 646.281C543.443 671.901 478.582 684.711 450.076 646.281C436.023 674.569 426.318 688.912 400.5 707.438C374.682 688.912 364.977 674.569 350.924 646.281C322.418 684.711 257.557 671.901 233.182 646.281L267.472 637.603C192.397 612.691 153.887 588.762 89 535.537C184.846 779.752 321.179 714.463 400.5 800Z" fill="#F29200"/>
<path d="M400.5 689.256C427.748 666.063 437.58 644.794 450.076 599.174H597.563V219.008C541.505 242.286 505.846 265.922 505.022 349.173C504.336 418.412 515.763 513.223 515.763 513.223H440.16L449.249 219.008C449.249 176.324 429.368 158.2 400.5 132.231C371.631 158.2 351.751 187.298 351.751 219.008L360.84 513.223H285.237C285.237 513.223 296.664 418.412 295.978 349.173C295.131 263.659 259.495 242.286 203.437 219.008V599.174H350.924C363.42 644.794 373.252 666.063 400.5 689.256Z" fill="#F29200"/>
<path d="M400.5 39.6692C438.844 39.6692 469.906 97.9336 410.828 124.793C430.245 150.413 454.207 166.942 459.578 223.967L486.844 219.008V150.413H449.249C519.068 98.7635 476.056 -3.30675e-05 400.5 0C319.288 0 281.932 98.7635 351.751 150.413H314.156V219.008L341.422 223.967C346.793 166.942 370.755 150.413 390.172 124.793C331.094 97.9336 361.025 39.6692 400.5 39.6692Z" fill="#F29200"/>
</svg>
